<svg width="52" height="19" viewBox="0 0 52 19" fill="none" xmlns="http://www.w3.org/2000/svg">
<path d="M3.261 18.551C2.52633 18.551 1.99467 18.435 1.666 18.203C1.33733 17.971 1.144 17.7197 1.086 17.449C1.00867 17.1783 0.97 16.9753 0.97 16.84C0.989333 16.5887 1.10533 16.3857 1.318 16.231C1.51133 16.0763 1.73367 15.999 1.985 15.999C2.13967 15.999 2.275 16.0377 2.391 16.115C2.507 16.173 2.565 16.3083 2.565 16.521C2.565 16.7143 2.49733 16.8497 2.362 16.927C2.22667 17.0043 2.08167 17.043 1.927 17.043C1.79167 17.043 1.67567 17.0237 1.579 16.985C1.463 16.9463 1.405 16.927 1.405 16.927C1.405 17.449 1.59833 17.797 1.985 17.971C2.37167 18.145 2.80667 18.232 3.29 18.232C4.044 18.232 4.81733 18.0193 5.61 17.594C6.422 17.1687 7.25333 16.608 8.104 15.912C8.95467 15.1967 9.82467 14.404 10.714 13.534C11.6227 12.6447 12.5507 11.7553 13.498 10.866C14.5227 9.89933 15.5377 8.94233 16.543 7.995C17.5677 7.02833 18.5537 6.15833 19.501 5.385C20.4483 4.61167 21.328 3.993 22.14 3.529C22.952 3.065 23.677 2.833 24.315 2.833C24.5277 2.833 24.6147 2.87167 24.576 2.949C24.5567 3.02633 24.402 3.08433 24.112 3.123C23.4353 3.239 22.691 3.54833 21.879 4.051C21.0863 4.53433 20.2453 5.16267 19.356 5.936C18.4667 6.69 17.5483 7.52133 16.601 8.43C15.673 9.31933 14.7257 10.2183 13.759 11.127C12.8697 11.9777 11.9707 12.838 11.062 13.708C10.1727 14.578 9.28333 15.3803 8.394 16.115C7.524 16.8497 6.654 17.4393 5.784 17.884C4.93333 18.3287 4.09233 18.551 3.261 18.551ZM12.193 17.246C12.077 17.2847 11.9417 17.3137 11.787 17.333C11.6517 17.333 11.613 17.2847 11.671 17.188C11.729 17.0913 11.8353 16.927 11.99 16.695C12.164 16.4437 12.3187 16.144 12.454 15.796C12.6087 15.448 12.686 15.0903 12.686 14.723C12.686 14.2397 12.599 13.6887 12.425 13.07C12.2703 12.432 12.0093 11.8133 11.642 11.214C11.294 10.6147 10.8203 10.1217 10.221 9.735C9.641 9.329 8.92567 9.126 8.075 9.126C7.51433 9.126 7.031 9.26133 6.625 9.532C6.23833 9.80267 5.93867 10.1313 5.726 10.518C5.53267 10.8853 5.436 11.243 5.436 11.591C5.436 12.345 5.65833 13.0603 6.103 13.737C6.567 14.4137 7.263 14.9647 8.191 15.39C9.119 15.796 10.2693 15.999 11.642 15.999C13.15 15.999 14.5033 15.738 15.702 15.216C16.9007 14.694 17.906 14.0173 18.718 13.186C19.53 12.3547 20.1003 11.4847 20.429 10.576C20.5257 10.286 20.603 10.1893 20.661 10.286C20.7383 10.3633 20.777 10.4407 20.777 10.518C20.777 11.1753 20.5547 11.8423 20.11 12.519C19.6653 13.1957 19.037 13.824 18.225 14.404C17.413 14.9647 16.4753 15.419 15.412 15.767C14.3487 16.115 13.1887 16.289 11.932 16.289C10.6367 16.289 9.438 16.1053 8.336 15.738C7.25333 15.3707 6.37367 14.8293 5.697 14.114C5.03967 13.3987 4.711 12.5383 4.711 11.533C4.711 10.8563 4.99133 10.2377 5.552 9.677C6.132 9.097 6.973 8.807 8.075 8.807C9.003 8.807 9.77633 9.01967 10.395 9.445C11.033 9.87033 11.5453 10.3923 11.932 11.011C12.3187 11.6297 12.599 12.2483 12.773 12.867C12.947 13.4857 13.034 13.998 13.034 14.404C13.034 14.8487 12.976 15.2933 12.86 15.738C12.744 16.1633 12.6183 16.521 12.483 16.811C12.367 17.0817 12.2703 17.2267 12.193 17.246ZM10.482 18.493C10.5013 18.4737 10.6947 18.2417 11.062 17.797C11.4293 17.3523 11.9127 16.7627 12.512 16.028C13.1113 15.2933 13.788 14.4717 14.542 13.563C15.296 12.635 16.079 11.6877 16.891 10.721C17.703 9.75433 18.4957 8.81667 19.269 7.908C20.0617 6.98 20.7867 6.14867 21.444 5.414C22.1207 4.66 22.6813 4.06067 23.126 3.616C23.59 3.17133 23.8897 2.93933 24.025 2.92C24.1217 2.88133 24.2087 2.88133 24.286 2.92C24.3633 2.95867 24.344 3.02633 24.228 3.123C24.1507 3.181 23.88 3.5 23.416 4.08C22.952 4.64067 22.3623 5.385 21.647 6.313C20.951 7.22167 20.1873 8.227 19.356 9.329C18.544 10.4117 17.732 11.4943 16.92 12.577C16.108 13.6403 15.3637 14.6263 14.687 15.535C14.0297 16.4243 13.4883 17.1397 13.063 17.681C12.657 18.2223 12.4443 18.493 12.425 18.493C12.3477 18.4737 12.2123 18.4543 12.019 18.435C11.845 18.4157 11.671 18.406 11.497 18.406C11.323 18.406 11.12 18.4157 10.888 18.435C10.6753 18.4737 10.54 18.493 10.482 18.493ZM21.7773 18.261C21.1006 18.261 20.5689 18.1643 20.1823 17.971C19.7763 17.7777 19.4959 17.5553 19.3413 17.304C19.1673 17.0333 19.0803 16.8207 19.0803 16.666C19.0803 16.3567 19.1769 16.1247 19.3703 15.97C19.5636 15.8153 19.8053 15.738 20.0953 15.738C20.4819 15.738 20.6753 15.9217 20.6753 16.289C20.6753 16.4243 20.6173 16.55 20.5013 16.666C20.3659 16.7627 20.2209 16.811 20.0663 16.811C19.8923 16.811 19.7569 16.7917 19.6603 16.753C19.5636 16.695 19.5153 16.666 19.5153 16.666C19.5153 16.9753 19.6313 17.2363 19.8633 17.449C20.0953 17.6423 20.3756 17.7873 20.7043 17.884C21.0523 17.9613 21.3809 18 21.6903 18C22.7536 18 23.7299 17.7003 24.6193 17.101C25.5279 16.4823 26.3689 15.6703 27.1423 14.665C27.9349 13.6403 28.6793 12.5383 29.3753 11.359C30.0713 10.1797 30.8929 9.08733 31.8403 8.082C32.7876 7.07667 33.7543 6.26467 34.7403 5.646C35.7263 5.02733 36.6156 4.70833 37.4083 4.689C37.6403 4.66967 37.7563 4.69867 37.7563 4.776C37.7563 4.85333 37.6403 4.91133 37.4083 4.95C36.7703 5.04667 36.0646 5.40433 35.2913 6.023C34.5373 6.62233 33.7543 7.42467 32.9423 8.43C32.1496 9.416 31.3666 10.547 30.5933 11.823C29.9746 12.8477 29.2399 13.8627 28.3893 14.868C27.5386 15.854 26.5623 16.666 25.4603 17.304C24.3776 17.942 23.1499 18.261 21.7773 18.261ZM23.0823 14.375C23.4109 13.737 23.9039 13.1957 24.5613 12.751C25.2186 12.3063 25.9533 11.9293 26.7653 11.62C27.5966 11.3107 28.4376 11.0497 29.2883 10.837C30.1389 10.6243 30.9316 10.4407 31.6663 10.286C32.4009 10.112 32.9906 9.938 33.4353 9.764C33.8026 9.62867 34.0249 9.51267 34.1023 9.416C34.1409 9.358 34.1699 9.30967 34.1893 9.271C34.2086 9.213 34.2183 9.184 34.2183 9.184C34.3729 9.184 34.6339 9.20333 35.0013 9.242C35.3879 9.26133 35.6973 9.29033 35.9293 9.329C35.5426 9.46433 35.1269 9.74467 34.6823 10.17C34.2569 10.5953 33.8896 11.04 33.5803 11.504C33.2709 11.9487 33.0776 12.2967 33.0003 12.548C32.9809 12.664 32.9229 12.722 32.8263 12.722C32.7296 12.722 32.6909 12.6253 32.7103 12.432C32.7296 12.2773 32.7973 12.055 32.9133 11.765C33.0486 11.4557 33.1936 11.156 33.3483 10.866C33.5029 10.5567 33.6383 10.3343 33.7543 10.199C33.4836 10.315 33.0099 10.4407 32.3333 10.576C31.6759 10.7113 30.9123 10.8757 30.0423 11.069C29.1723 11.243 28.2926 11.475 27.4033 11.765C26.5139 12.055 25.7019 12.4127 24.9673 12.838C24.2519 13.244 23.7106 13.7467 23.3433 14.346C23.2853 14.4427 23.2079 14.5103 23.1113 14.549C23.0146 14.5877 23.0049 14.5297 23.0823 14.375ZM26.7653 9.213C26.4946 9.213 26.2046 9.17433 25.8953 9.097C25.5859 9.01967 25.3249 8.87467 25.1123 8.662C24.8996 8.43 24.7933 8.10133 24.7933 7.676C24.7933 7.23133 24.9673 6.719 25.3153 6.139C25.6633 5.53967 26.2239 4.96933 26.9973 4.428C27.7706 3.86733 28.8049 3.40333 30.1003 3.036C31.3956 2.66867 32.9906 2.485 34.8853 2.485C35.4653 2.485 36.1709 2.55267 37.0023 2.688C37.8529 2.804 38.7616 2.862 39.7283 2.862C40.4823 2.862 41.1106 2.76533 41.6133 2.572C42.1353 2.37867 42.5413 2.15633 42.8313 1.905C43.1213 1.65367 43.3339 1.43133 43.4693 1.238C43.6046 1.02533 43.6723 0.918999 43.6723 0.918999C43.7689 0.744999 43.8656 0.677332 43.9623 0.716C44.0589 0.754666 44.0589 0.841666 43.9623 0.977C43.9043 1.05433 43.7689 1.24767 43.5563 1.557C43.3436 1.86633 43.0246 2.20467 42.5993 2.572C42.1739 2.92 41.6036 3.22933 40.8883 3.5C40.1729 3.77067 39.2933 3.906 38.2493 3.906C37.9013 3.906 37.4469 3.877 36.8863 3.819C36.3256 3.761 35.7166 3.703 35.0593 3.645C34.4213 3.56767 33.8026 3.5 33.2033 3.442C32.6039 3.384 32.1013 3.355 31.6953 3.355C31.0379 3.355 30.3226 3.471 29.5493 3.703C28.7953 3.935 28.0799 4.254 27.4033 4.66C26.7266 5.04667 26.1756 5.49133 25.7503 5.994C25.3249 6.49667 25.1123 7.01867 25.1123 7.56C25.1123 7.71467 25.1413 7.88867 25.1993 8.082C25.2573 8.27533 25.3733 8.43967 25.5473 8.575C25.7406 8.71033 26.0209 8.778 26.3883 8.778C26.9489 8.778 27.5096 8.62333 28.0703 8.314C28.6503 8.00467 29.1723 7.62767 29.6363 7.183C30.1196 6.719 30.5063 6.26467 30.7963 5.82C31.0863 5.37533 31.2313 5.02733 31.2313 4.776C31.2313 4.58267 31.2506 4.50533 31.2893 4.544C31.3473 4.56333 31.3859 4.62133 31.4053 4.718C31.4633 5.182 31.3569 5.675 31.0863 6.197C30.8349 6.719 30.4773 7.212 30.0133 7.676C29.5686 8.12067 29.0563 8.488 28.4763 8.778C27.9156 9.068 27.3453 9.213 26.7653 9.213ZM37.5544 18.261C36.8197 18.261 36.1721 18.116 35.6114 17.826C35.0507 17.536 34.7704 17.1493 34.7704 16.666C34.7704 16.3567 34.8961 16.1247 35.1474 15.97C35.3987 15.796 35.6114 15.709 35.7854 15.709C35.9594 15.709 36.0947 15.7573 36.1914 15.854C36.3074 15.9507 36.3654 16.0667 36.3654 16.202C36.3654 16.376 36.3074 16.521 36.1914 16.637C36.0561 16.7337 35.9111 16.782 35.7564 16.782C35.5824 16.782 35.4471 16.7627 35.3504 16.724C35.2537 16.666 35.2054 16.637 35.2054 16.637C35.2054 16.7917 35.2537 16.9753 35.3504 17.188C35.4277 17.4007 35.6404 17.5843 35.9884 17.739C36.3364 17.8937 36.8777 17.971 37.6124 17.971C38.3664 17.971 39.1011 17.739 39.8164 17.275C40.5317 16.7917 41.2181 16.1923 41.8754 15.477C42.5521 14.7423 43.1997 13.969 43.8184 13.157C44.4371 12.345 45.0267 11.591 45.5874 10.895C46.1674 10.199 46.7281 9.66733 47.2694 9.3C47.4821 9.14533 47.6561 9.02933 47.7914 8.952C47.9461 8.85533 47.9751 8.85533 47.8784 8.952C47.7044 9.126 47.3757 9.39667 46.8924 9.764C46.4091 10.1313 45.8387 10.5083 45.1814 10.895C44.5434 11.2817 43.8861 11.62 43.2094 11.91C42.5327 12.1807 41.9044 12.316 41.3244 12.316C40.7251 12.316 40.2997 12.2483 40.0484 12.113C39.8164 11.9583 39.7004 11.6103 39.7004 11.069C39.7004 10.315 39.9324 9.52233 40.3964 8.691C40.8797 7.85967 41.5081 7.05733 42.2814 6.284C43.0741 5.51067 43.9344 4.81467 44.8624 4.196C45.7904 3.558 46.7087 3.05533 47.6174 2.688C48.5261 2.32067 49.3477 2.137 50.0824 2.137C50.6237 2.137 50.9814 2.23367 51.1554 2.427C51.3487 2.62033 51.4454 2.88133 51.4454 3.21C51.4454 3.71267 51.1747 4.29267 50.6334 4.95C50.1114 5.588 49.4057 6.23567 48.5164 6.893C47.6464 7.531 46.6604 8.12067 45.5584 8.662C44.4757 9.20333 43.3737 9.648 42.2524 9.996C41.1311 10.3247 40.0677 10.489 39.0624 10.489C38.2891 10.489 37.6801 10.402 37.2354 10.228C36.7907 10.054 36.5201 9.92833 36.4234 9.851C36.2881 9.75433 36.2494 9.68667 36.3074 9.648C36.3847 9.60933 36.4621 9.619 36.5394 9.677C36.6167 9.735 36.8584 9.851 37.2644 10.025C37.6897 10.1797 38.2891 10.257 39.0624 10.257C40.0484 10.257 41.0924 10.0637 42.1944 9.677C43.3157 9.29033 44.3984 8.79733 45.4424 8.198C46.5057 7.57933 47.4724 6.93167 48.3424 6.255C49.2124 5.57833 49.8987 4.95 50.4014 4.37C50.9234 3.79 51.1844 3.34533 51.1844 3.036C51.1844 2.82333 51.0781 2.66867 50.8654 2.572C50.6721 2.47533 50.4691 2.427 50.2564 2.427C49.6571 2.427 49.0094 2.61067 48.3134 2.978C47.6174 3.326 46.9021 3.79 46.1674 4.37C45.4521 4.95 44.7561 5.588 44.0794 6.284C43.4221 6.96067 42.8324 7.63733 42.3104 8.314C41.7884 8.97133 41.3727 9.561 41.0634 10.083C40.7541 10.605 40.5994 11.0013 40.5994 11.272C40.5994 11.5233 40.6671 11.7167 40.8024 11.852C40.9571 11.968 41.1697 12.026 41.4404 12.026C42.0204 12.026 42.6391 11.881 43.2964 11.591C43.9731 11.301 44.6401 10.9433 45.2974 10.518C45.9741 10.0733 46.6024 9.63833 47.1824 9.213C47.7817 8.76833 48.2844 8.39133 48.6904 8.082C49.0964 7.77267 49.3671 7.59867 49.5024 7.56C49.7151 7.502 49.8601 7.502 49.9374 7.56C50.0341 7.59867 50.0051 7.66633 49.8504 7.763C49.4057 8.01433 48.9417 8.43967 48.4584 9.039C47.9751 9.63833 47.4627 10.3343 46.9214 11.127C46.3801 11.9197 45.7904 12.7317 45.1524 13.563C44.5144 14.3943 43.8184 15.1677 43.0644 15.883C42.3104 16.5983 41.4791 17.1783 40.5704 17.623C39.6617 18.0483 38.6564 18.261 37.5544 18.261Z" fill="#D52CC4"/>
</svg>
